<?xml version="1.0" encoding="UTF-8" standalone="no"?>
<svg width="32px" height="25px" viewBox="0 0 32 25" version="1.1" xmlns="http://www.w3.org/2000/svg" xmlns:xlink="http://www.w3.org/1999/xlink">
    <!-- Generator: Sketch 39.1 (31720) - http://www.bohemiancoding.com/sketch -->
    <title>bird</title>
    <desc>Created with Sketch.</desc>
    <defs></defs>
    <g id="Page-1" stroke="none" stroke-width="1" fill="none" fill-rule="evenodd">
        <g id="bird" fill="#439CD6">
            <g id="Page-1">
                <g id="bird">
                    <path d="M10.09,25 C22.12,25 28.7,15.4134615 28.7,7.10576925 C28.7,6.83653845 28.7,6.5673077 28.68,6.28846155 C29.96,5.39423075 31.06,4.29807692 31.94,3.02884615 C30.75,3.53846154 29.48,3.875 28.18,4.01923077 C29.55,3.23076923 30.57,2 31.06,0.53846154 C29.78,1.26923077 28.37,1.78846154 26.91,2.06730769 C24.43,-0.461538462 20.29,-0.58653846 17.66,1.79807692 C15.96,3.33653846 15.24,5.625 15.77,7.8076923 C10.51,7.5576923 5.61,5.16346155 2.29,1.24038461 C0.55,4.11538461 1.44,7.78846155 4.31,9.6346154 C3.27,9.60576925 2.25,9.33653845 1.34,8.84615385 L1.34,8.9230769 C1.34,11.9134615 3.54,14.4903846 6.59,15.0865384 C5.63,15.3365384 4.62,15.375 3.64,15.1923077 C4.5,17.75 6.95,19.5096154 9.75,19.5576923 C7.43,21.3076923 4.57,22.2596154 1.63,22.2596154 C1.11,22.2596154 0.59,22.2307692 0.07,22.1730769 C3.05,24.0192307 6.53,25 10.09,25" id="XMLID_22_"></path>
                </g>
            </g>
        </g>
    </g>
</svg>