<?xml version="1.0" encoding="UTF-8" standalone="no"?>
<svg width="28px" height="32px" viewBox="0 0 28 32" version="1.1" xmlns="http://www.w3.org/2000/svg" xmlns:xlink="http://www.w3.org/1999/xlink">
    <!-- Generator: Sketch 39.1 (31720) - http://www.bohemiancoding.com/sketch -->
    <title>Shape</title>
    <desc>Created with Sketch.</desc>
    <defs></defs>
    <g id="Page-1" stroke="none" stroke-width="1" fill="none" fill-rule="evenodd">
        <g id="hash" fill="#7474E1">
            <path d="M28,12 L28,8 L22.996,8 L23.996,0 L19.996,0 L18.996,8 L10.998,8 L11.998,0 L7.998,0 L6.998,8 L0,8 L0,12 L6.498,12 L5.5,20 L0,20 L0,24 L5,24 L4,32 L8,32 L9,24 L17,24 L15.998,32 L20,32 L21,24 L28,24 L28,20 L21.5,20 L22.496,12 L28,12 L28,12 Z M17.5,20 L9.5,20 L10.498,12 L18.496,12 L17.5,20 L17.5,20 Z" id="Shape"></path>
        </g>
    </g>
</svg>