<?xml version="1.0" encoding="UTF-8" standalone="no"?>
<svg width="304px" height="377px" viewBox="0 0 304 377" version="1.1" xmlns="http://www.w3.org/2000/svg" xmlns:xlink="http://www.w3.org/1999/xlink">
    <!-- Generator: Sketch 39.1 (31720) - http://www.bohemiancoding.com/sketch -->
    <title>r</title>
    <desc>Created with Sketch.</desc>
    <defs></defs>
    <g id="Page-1" stroke="none" stroke-width="1" fill="none" fill-rule="evenodd">
        <g id="r" transform="translate(1.000000, 0.000000)">
            <g id="Page-1">
                <g id="Artboard-2">
                    <g id="r">
                        <g id="Page-1">
                            <g id="Artboard">
                                <g id="Layer_1">
                                    <g id="Group" transform="translate(88.000000, 0.000000)" fill="#6BBC9D">
                                        <path d="M22.1,242.2 C22.1,242.2 1.4,269.3 0.8,289.2 C0.8,295.4 5.3,298.9 14.2,298.9 L106.2,298.9 C106.2,298.9 120.8,299.2 120.9,286.8 C121,274.5 103.4,247.6 103.4,247.6 C103.4,247.6 71.7,251.9 57.1,242.2 C42.5,232.5 22.1,242.2 22.1,242.2 Z" id="XMLID_3_"></path>
                                        <circle id="XMLID_7_" cx="49.7" cy="69.4" r="4"></circle>
                                        <circle id="XMLID_8_" cx="69.2" cy="58.1" r="4.2"></circle>
                                        <path d="M172.8,290.1 C161,290.1 158.7,292.5 158.7,292.5 L158.7,341.5 C158.7,344.4 161,355.5 172.7,355.5 L172.7,355.3 L172.8,355.5 L173.1,355.5 C184.5,355.2 186.8,344.8 186.8,341.5 C186.8,338.2 186.8,292.5 186.9,292.5 C186.9,292.5 184.6,290.1 172.8,290.1 Z" id="XMLID_21_"></path>
                                        <circle id="XMLID_15_" cx="167.1" cy="233.3" r="4.4"></circle>
                                        <circle id="XMLID_20_" cx="182.4" cy="234.6" r="2"></circle>
                                        <circle id="XMLID_25_" cx="170.1" cy="70.2" r="14.5"></circle>
                                        <circle id="XMLID_26_" cx="123.7" cy="19.7" r="19"></circle>
                                    </g>
                                    <path d="M171.6,211.5 C161.3,198.1 161.3,198.1 161.3,189.9 L161.3,89.8 L165.7,89.8 L165.7,84.8 L161.3,84.8 L159,84.8 L148.3,84.8 L143.9,84.8 L137.6,84.8 L135.3,84.8 L130.9,84.8 L130.9,89.8 L135.3,89.8 L135.3,189.9 C135.3,195.2 135.3,198.1 125,211.5 C114.7,224.9 55.9,303.2 99.7,303.2 L137.6,303.2 L159,303.2 L196.9,303.2 C240.6,303.3 181.9,224.9 171.6,211.5 L171.6,211.5 L171.6,211.5 L171.6,211.5 Z" id="XMLID_5_" stroke="#FFFFFF" stroke-width="2"></path>
                                    <circle id="XMLID_4_" fill="#FFFFFF" cx="127.2" cy="248.5" r="3.6"></circle>
                                    <circle id="XMLID_6_" fill="#FFFFFF" cx="177.1" cy="259.9" r="3.3"></circle>
                                    <circle id="XMLID_9_" fill="#FFFFFF" cx="154.6" cy="251.2" r="2.6"></circle>
                                    <path d="M120.3,303.8 L98.3,375.9" id="XMLID_10_" stroke="#FFFFFF" stroke-width="2" fill="#FFFFFF"></path>
                                    <path d="M177.5,303.8 L199.4,375.9" id="XMLID_11_" stroke="#FFFFFF" stroke-width="2" fill="#FFFFFF"></path>
                                    <path d="M218.8,303.8 L79.8,303.8" id="XMLID_12_" stroke="#FFFFFF" stroke-width="2" fill="#FFFFFF"></path>
                                    <path d="M278.5,249 C278.5,249 277.8,253.2 261.1,253.2 C244.4,253.2 242.8,249 242.8,249 C242.8,249 242.7,246.5 260.6,246.5 C278.5,246.5 278.5,249 278.5,249 L278.5,249 L278.5,249 L278.5,249 Z" id="XMLID_14_" stroke="#FFFFFF" stroke-width="2"></path>
                                    <path d="M260.7,253.1 C260.7,253.1 248,253.4 243.6,249.8 L243.6,340.5 C243.6,340.5 244,358.8 260.7,358.3 C277.4,358.8 277.8,340.5 277.8,340.5 L277.8,249.8 C273.4,253.5 260.7,253.1 260.7,253.1 L260.7,253.1 L260.7,253.1 L260.7,253.1 Z" id="XMLID_18_" stroke="#FFFFFF" stroke-width="2"></path>
                                    <circle id="XMLID_16_" fill="#FFFFFF" cx="268.3" cy="299.5" r="1.2"></circle>
                                    <circle id="XMLID_17_" fill="#FFFFFF" cx="254.4" cy="296.9" r="1.3"></circle>
                                    <circle id="XMLID_19_" fill="#FFFFFF" cx="263.2" cy="292.9" r="1.9"></circle>
                                    <path d="M283.2,304 L292.5,304" id="XMLID_23_" stroke="#FFFFFF" stroke-width="2"></path>
                                    <path d="M228,304 L237.3,304" id="XMLID_24_" stroke="#FFFFFF" stroke-width="2"></path>
                                    <path d="M74.3,303.8 L33.7,303.8" id="XMLID_27_" stroke="#FFFFFF" stroke-width="2" fill="#FFFFFF"></path>
                                    <path d="M301.5,299.5 L301.5,370.7" id="XMLID_29_" stroke="#FFFFFF" stroke-width="2"></path>
                                    <circle id="XMLID_1_" stroke="#FFFFFF" stroke-width="2" cx="18" cy="303.8" r="17.3"></circle>
                                </g>
                            </g>
                        </g>
                    </g>
                </g>
            </g>
        </g>
    </g>
</svg>